<?xml version="1.0"?>
<svg width="163" height="163" xmlns="http://www.w3.org/2000/svg" xmlns:svg="http://www.w3.org/2000/svg" xmlns:xlink="http://www.w3.org/1999/xlink">
 <!-- Created with SVG-edit - http://svg-edit.googlecode.com/ -->
 <defs>
  <symbol viewBox="0 0 64 64" height="64px" width="64px" y="0px" x="0px" id="svg_2" xmlns:xlink="http://www.w3.org/1999/xlink" xmlns="http://www.w3.org/2000/svg">
   <g>
    <path d="m54,6l-44,0l0,25c0,1.655998 1.343,3 3,3l17.757,0l7.122002,7.120998c0.542999,0.542 1.292999,0.879002 2.120998,0.879002l11,0c1.657001,0 3,-1.342999 3,-3l0,-33l0,0zm-3,42l-6,0c-1.655998,0 -3,1.342999 -3,3s1.344002,3 3,3l6,0c1.657001,0 3,-1.342999 3,-3s-1.342999,-3 -3,-3l0,0zm-32,0l-6,0c-1.657,0 -3,1.342999 -3,3s1.343,3 3,3l6,0c1.657,0 3,-1.342999 3,-3s-1.343,-3 -3,-3l0,0zm-15,-19c-2.197,0 -3.979,-1.771999 -4,-3.964001l0,-8.035999c0,-1.657 1.343,-3 3,-3l1,0l0,-10c0,-2.209 1.791,-4 4,-4l48,0c2.209,0 4,1.791 4,4l0,10l1,0c1.657001,0 3,1.343 3,3l0,8c0,2.209 -1.791,4 -4,4l0,31c0,2.209 -1.791,4 -4,4l-4,0c-2.209,0 -4,-1.791 -4,-4l-32,0c0,2.209 -1.791,4 -4,4l-4,0c-2.209,0 -4,-1.791 -4,-4l0,-31l0,0z"/>
   </g>
  </symbol>
 </defs>
 <g>
  <title>Layer 1</title>
  <use fill="#f39c12" x="0.4" y="0.8" transform="matrix(2.5,0,0,2.5,0,0) " xlink:href="#svg_2" id="svg_3"/>
 </g>
</svg>