<?xml version="1.0"?>
<svg width="165" height="109" xmlns="http://www.w3.org/2000/svg" xmlns:svg="http://www.w3.org/2000/svg" xmlns:xlink="http://www.w3.org/1999/xlink">
 <!-- Created with SVG-edit - http://svg-edit.googlecode.com/ -->
 <defs>
  <symbol id="svg_1" viewBox="0 0 100.004 65.265" height="65.265px" width="100.004px" y="0px" x="0px" xmlns:xlink="http://www.w3.org/1999/xlink" xmlns="http://www.w3.org/2000/svg">
   <path d="m100,2.755l0.003998,58.516c0,2.205002 -1.787994,3.993 -3.992996,3.993s-3.992004,-1.787998 -3.992004,-3.993l2.212006,-23.696999c0,-1.043003 -0.400002,-1.993 -1.056,-2.705002c-0.687004,-0.743999 -1.152,-1.710999 -1.152,-2.805l0,-16.421c0,0 -0.361,-15.541 5.323997,-15.541c1.464996,0 2.653,1.188 2.653,2.653z"/>
   <path d="m13.44,20.035999l-1.754999,-19.483999c-0.031,-0.296 -0.281,-0.527 -0.585,-0.527c-0.326,0 -0.59,0.264 -0.59,0.59l0.146999,18.212c0,0.448 -0.363,0.812 -0.811,0.812s-0.811,-0.362999 -0.811,-0.812l-0.295,-18.213c0,-0.326 -0.264,-0.59 -0.59,-0.59s-0.589,0.264 -0.589,0.59l0,18.212c0,0.448 -0.364,0.812 -0.812,0.812s-0.811,-0.363001 -0.811,-0.812l0,-18.212c0,-0.326 -0.264,-0.59 -0.59,-0.59s-0.59,0.264 -0.59,0.59l-0.295,18.212c0,0.448 -0.363,0.812 -0.811,0.812c-0.448,0 -0.812,-0.363001 -0.812,-0.812l0.148,-18.212c0,-0.326 -0.264,-0.59 -0.59,-0.59c-0.304,0 -0.554,0.231 -0.585,0.527l-1.755,19.484999c-0.038,0.288 -0.058,0.583 -0.058,0.883001c0,1.316999 0.379,2.546 1.031,3.584l0.001,0.003l2.618,4.184c0.562,0.979 0.884,2.114 0.884,3.324999l-1.766,29.140999c0,2.199001 1.782,3.981003 3.981,3.981003s3.982,-1.782001 3.982,-3.981003l-1.77,-29.140999c0,-1.210999 0.323999,-2.345999 0.886999,-3.324999l2.618,-4.185001l0.001,-0.002998c0.652,-1.038 1.031,-2.267 1.031,-3.584002c0,-0.299 -0.02,-0.594 -0.058001,-0.882z"/>
   <path d="m51.799999,0c-18.000999,0 -32.594,14.593 -32.594,32.595001c0,18.001999 14.593,32.595001 32.594,32.595001c18.002003,0 32.594997,-14.593002 32.594997,-32.595001c0,-18.002001 -14.592995,-32.595001 -32.594997,-32.595001zm12.139999,20.455c0.756001,-0.613001 1.866001,-0.499001 2.479,0.256001c0.613998,0.755999 0.5,1.865999 -0.255997,2.48c-0.755005,0.613001 -1.865005,0.499001 -2.479004,-0.257c-0.613998,-0.754 -0.497997,-1.865 0.256001,-2.479zm1.182003,25.484999l-0.010002,-0.010998c-6.741001,6.769001 -17.646999,7.462997 -25.218998,1.308998c-0.755001,-0.613998 -0.870003,-1.724998 -0.256001,-2.479c0.613998,-0.756001 1.724998,-0.869999 2.48,-0.256001c6.155998,5.003002 15.021999,4.438004 20.500999,-1.065998l0.011002,0.011002c3.851002,-3.851002 5.521,-9.637001 3.854,-15.221003c-0.278,-0.932999 0.251999,-1.914 1.185997,-2.192999c0.932999,-0.277 1.914001,0.253 2.192001,1.185999c2.049004,6.867002 -0.003998,13.983 -4.738998,18.719999z"/>
  </symbol>
 </defs>
 <g>
  <title>Layer 1</title>
  <use fill="#ecd078" x="1.25005" y="1.875075" transform="matrix(1.5999360084533691,0,0,1.5999360084533691,0,0) " xlink:href="#svg_1" id="svg_2"/>
 </g>
</svg>