<svg xmlns="http://www.w3.org/2000/svg" xmlns:xlink="http://www.w3.org/1999/xlink" version="1.1" x="0px" y="0px" viewBox="0 0 100 100" enable-background="new 0 0 100 100" xml:space="preserve"><path fill="#5ccccc" d="M80.818,92.963H56.077c-0.187,0-0.367-0.029-0.536-0.084c-0.546,0.056-1.101,0.084-1.662,0.084H31.521  c-8.365,0-15.271-6.301-16.136-14.361c-3.354-0.181-6.017-2.54-6.017-5.414s2.663-5.233,6.017-5.414  c0.865-8.061,7.771-14.361,16.136-14.361h12.224l-1.219-18.899h-2.758c-0.557,0-1.081-0.265-1.41-0.714  c-0.33-0.449-0.426-1.027-0.26-1.56l1.833-5.851c0.229-0.729,0.905-1.227,1.67-1.227h23.222l1.248-9.994  c0.072-0.581,0.43-1.087,0.954-1.349l13.194-6.598c0.867-0.429,1.916-0.081,2.348,0.783s0.082,1.915-0.783,2.348l-12.356,6.179  l-1.077,8.631h18.699c0.765,0,1.441,0.497,1.67,1.227l1.833,5.851c0.167,0.532,0.07,1.11-0.26,1.56  c-0.33,0.449-0.853,0.714-1.41,0.714h-2.755l-2.965,47.295c-0.001,0.045-0.004,0.089-0.008,0.132l-0.588,9.383  C82.507,92.244,81.742,92.963,80.818,92.963z M63.978,89.463h15.197l0.373-5.95H68.665C67.595,85.846,65.979,87.884,63.978,89.463z   M18.913,78.612c0.852,6.121,6.182,10.851,12.608,10.851h22.357c5.374,0,9.98-3.306,11.844-7.968  c0.036-0.235,0.119-0.455,0.239-0.649c0.242-0.718,0.419-1.465,0.526-2.233H18.913z M69.799,80.013h9.967l2.107-33.601H46.801  l0.452,7h6.626c8.375,0,15.288,6.315,16.139,14.391c3.178,0.327,5.647,2.617,5.647,5.385s-2.469,5.058-5.647,5.385  C69.967,79.059,69.894,79.54,69.799,80.013z M68.531,75.112h0.704c1.727,0,2.93-1.015,2.93-1.925s-1.204-1.925-2.93-1.925h-1.672  c0.371,0.388,0.764,0.824,1.182,1.314c0.627,0.735,0.539,1.84-0.197,2.467c-0.025,0.021-0.052,0.043-0.078,0.063  C68.489,75.108,68.51,75.11,68.531,75.112z M59.374,75.112h6.988c-0.102-0.076-0.196-0.165-0.282-0.266  c-1.923-2.257-3.088-2.992-3.472-3.127c-0.489,0.233-1.486,1.395-2.094,2.103C60.14,74.259,59.762,74.7,59.374,75.112z   M46.087,75.112h5.794c-0.472-0.537-0.895-1.115-1.287-1.65c-0.399-0.546-1.039-1.42-1.414-1.707  c-0.424,0.271-1.189,1.181-1.665,1.747C47.064,74.039,46.594,74.6,46.087,75.112z M33.018,75.112h5.434  c-0.558-0.614-1.029-1.287-1.444-1.88c-0.359-0.513-0.877-1.252-1.205-1.538c-0.44,0.321-1.178,1.317-1.639,1.94  C33.792,74.138,33.415,74.646,33.018,75.112z M19.125,75.112h6.803c-0.529-0.579-0.994-1.215-1.422-1.801  c-0.395-0.539-1.034-1.413-1.386-1.661c-0.27,0.108-1.407,0.665-3.79,3.271C19.266,74.991,19.197,75.055,19.125,75.112z   M15.799,71.263c-1.727,0-2.931,1.015-2.931,1.925s1.204,1.925,2.931,1.925h1.07c0.025-0.003,0.051-0.006,0.075-0.006  c-0.03-0.023-0.059-0.049-0.087-0.075c-0.713-0.652-0.763-1.759-0.11-2.472c0.441-0.482,0.854-0.913,1.243-1.297H15.799z   M53.322,71.263c0.032,0.044,0.064,0.088,0.096,0.131c0.633,0.865,1.691,2.311,2.29,2.319c0.397-0.127,1.495-1.406,2.15-2.17  c0.081-0.094,0.161-0.188,0.241-0.28H53.322z M39.901,71.263c0.725,1.034,1.62,2.298,2.356,2.298c0.635,0,1.796-1.378,2.569-2.298  H39.901z M27.344,71.263c0.686,0.938,1.61,2.197,2.271,2.292c0.42-0.225,1.239-1.331,1.736-2.003  c0.071-0.096,0.143-0.192,0.215-0.289H27.344z M18.913,67.763h47.574c-0.852-6.121-6.182-10.851-12.608-10.851H31.521  C25.095,56.912,19.765,61.642,18.913,67.763z M46.575,42.912h35.519l0.526-8.399H46.033L46.575,42.912z M42.15,31.013H86.5  l-0.736-2.351H42.886L42.15,31.013z M41.954,88.289c-0.396,0-0.79-0.096-1.155-0.283c-0.623-0.32-1.105-0.895-1.323-1.575  c-0.295-0.92,0.212-1.905,1.133-2.2c0.699-0.225,1.439,0.016,1.881,0.55c0.615,0.112,1.149,0.55,1.354,1.187  c0.296,0.92-0.21,1.906-1.13,2.202C42.466,88.249,42.21,88.289,41.954,88.289z M33.77,88.031c-0.698,0-1.403-0.279-1.933-0.83  c-0.67-0.696-0.648-1.805,0.048-2.475c0.531-0.511,1.302-0.619,1.935-0.333c0.605-0.171,1.279-0.009,1.741,0.476  c0.668,0.698,0.643,1.807-0.056,2.474C35.023,87.804,34.399,88.031,33.77,88.031z M57.606,87.637c-0.966,0-1.75-0.783-1.75-1.75  c0-0.955,0.766-1.731,1.716-1.75c0.042-0.024,0.102-0.092,0.115-0.134c0-0.967,0.78-1.723,1.747-1.723  c0.966,0,1.747,0.811,1.747,1.777C61.181,85.964,59.511,87.637,57.606,87.637z M50.01,87.152c-0.966,0-1.75-0.783-1.75-1.75  c0-0.736,0.455-1.366,1.099-1.625c0.295-0.552,0.876-0.927,1.545-0.927c0.966,0,1.75,0.783,1.75,1.75  C52.654,86.008,51.468,87.152,50.01,87.152z M25.766,85.455c-1.092,0-2.122-0.727-2.484-1.855c-0.296-0.92,0.21-1.905,1.131-2.201  c0.702-0.226,1.441,0.017,1.884,0.55c0.616,0.112,1.15,0.552,1.354,1.189c0.294,0.921-0.213,1.905-1.134,2.2  C26.268,85.417,26.016,85.455,25.766,85.455z M36.744,65.645c-0.966,0-1.75-0.783-1.75-1.75c0-1.407,1.186-2.552,2.644-2.552  c0.966,0,1.75,0.783,1.75,1.75c0,0.736-0.455,1.366-1.099,1.625C37.995,65.27,37.413,65.645,36.744,65.645z M22.45,65.378  c-0.966,0-1.75-0.783-1.75-1.75c0-1.407,1.186-2.552,2.644-2.552c0.966,0,1.75,0.783,1.75,1.75c0,0.736-0.455,1.366-1.099,1.625  C23.701,65.003,23.119,65.378,22.45,65.378z M59.7,64.18c-0.521,0-1.017-0.234-1.347-0.633c-0.615-0.112-1.149-0.55-1.354-1.187  c-0.296-0.92,0.209-1.905,1.129-2.202c0.674-0.216,1.417-0.133,2.04,0.23c0.568,0.333,0.994,0.867,1.199,1.506  c0.296,0.92-0.21,1.905-1.131,2.201C60.058,64.153,59.877,64.18,59.7,64.18z M29.78,62.812c-0.966,0-1.75-0.783-1.75-1.75  c0-1.85,1.587-3.354,3.537-3.354c0.966,0,1.75,0.783,1.75,1.75s-0.784,1.75-1.75,1.75c-0.017,0-0.031,0.002-0.043,0.004  C31.448,62.108,30.696,62.812,29.78,62.812z M46.505,62.348c-0.522,0-1.018-0.235-1.348-0.634c-0.616-0.112-1.151-0.553-1.354-1.19  c-0.294-0.92,0.214-1.905,1.134-2.199c1.341-0.424,2.791,0.353,3.235,1.74c0.295,0.92-0.212,1.905-1.133,2.2  C46.862,62.321,46.682,62.348,46.505,62.348z M40.263,61.353c-0.393,0-0.788-0.132-1.114-0.401  c-0.745-0.616-0.849-1.719-0.233-2.464c0.783-0.943,2.185-1.08,3.128-0.304c0.746,0.615,0.852,1.718,0.237,2.464  c-0.381,0.464-0.947,0.686-1.508,0.63C40.607,61.327,40.436,61.353,40.263,61.353z M53.55,61.257c-0.247,0-0.493-0.052-0.722-0.155  c-0.603,0.17-1.275,0.009-1.739-0.474c-0.669-0.697-0.646-1.806,0.052-2.475c0.511-0.488,1.219-0.737,1.932-0.686  c0.658,0.05,1.276,0.344,1.74,0.829c0.668,0.697,0.644,1.806-0.054,2.474C54.421,61.096,53.985,61.257,53.55,61.257z"/></svg>
