<?xml version="1.0" encoding="UTF-8" standalone="no"?>
<svg width="1328px" height="1266px" viewBox="0 0 1328 1266" version="1.1" xmlns="http://www.w3.org/2000/svg" xmlns:xlink="http://www.w3.org/1999/xlink" xmlns:sketch="http://www.bohemiancoding.com/sketch/ns">
    <title>google-nexus-5</title>
    <description>Created with Sketch (http://www.bohemiancoding.com/sketch)</description>
    <defs></defs>
    <g id="Page-1" stroke="none" stroke-width="1" fill="none" fill-rule="evenodd" sketch:type="MSPage">
        <g id="google-nexus-5" sketch:type="MSLayerGroup" fill="#000000">
            <g id="Page-1" sketch:type="MSShapeGroup">
                <g id="google-nexus-5-(front)">
                    <path d="M635,1203 L635,238 L639.993155,238 C640.54922,238 641,237.544469 641,237.005084 L641,157.994916 C641,157.445439 640.550051,157 639.993155,157 L635,157 L635,63 L634.989317,62.9999999 C635.008823,62.6799739 635.009003,62.3540944 634.988782,62.0235181 C634.988782,62.0235181 635.476701,47.012826 626.542111,36.7434672 C617.607519,26.4741085 609.64855,24.6626116 609.64855,24.6626116 C605.605158,22.8861006 598.74947,20.8541178 594.446746,19.8799029 C594.446746,19.8799029 581.817839,16.4943964 545.807228,11.6508497 C524.383635,8.7693057 490.694654,5.72200883 471.042222,4.684615 C449.017876,3.52201471 419.855921,1.32340925 391.732486,0.530371842 C359.892397,-0.36746961 330.298982,0.106983491 321,0.29834542 C311.701018,0.106983491 282.107603,-0.36746961 250.267514,0.530371842 C222.144079,1.32340925 192.982124,3.52201471 170.957778,4.684615 C151.305346,5.72200883 117.616365,8.7693057 96.1927722,11.6508497 C60.1821606,16.4943964 47.5532541,19.8799029 47.5532541,19.8799029 C43.2505302,20.8541178 36.3948417,22.8861006 32.3514501,24.6626116 C32.3514501,24.6626116 24.3924806,26.4741085 15.4578886,36.7434672 C6.52329882,47.012826 7.01121788,62.0235181 7.01121788,62.0235181 C6.99099662,62.3540945 6.9911765,62.679974 7,63 L7,241 L1.00684547,241 C0.450780073,241 0,241.438228 0,241.999922 L0,439.000078 C0,439.55232 0.449948758,440 1.00684547,440 L7,440 L7,1203 C6.9911765,1203.32003 6.99099662,1203.64591 7.01121788,1203.97648 C7.01121788,1203.97648 6.52329882,1218.98717 15.4578886,1229.25653 C24.3924806,1239.52589 32.3514501,1241.33739 32.3514501,1241.33739 C36.3948417,1243.1139 43.2505302,1245.14588 47.5532541,1246.1201 C47.5532541,1246.1201 60.1821606,1249.5056 96.1927722,1254.34915 C117.616365,1257.23069 151.305346,1260.27799 170.957778,1261.31539 C192.982124,1262.47799 222.144079,1264.67659 250.267514,1265.46963 C282.107603,1266.36747 311.701018,1265.89302 321,1265.70165 C330.298981,1265.89302 359.892396,1266.36747 391.732486,1265.46963 C419.855921,1264.67659 449.017876,1262.47799 471.042222,1261.31539 C490.694654,1260.27799 524.383635,1257.23069 545.807228,1254.34915 C581.817839,1249.5056 594.446746,1246.1201 594.446746,1246.1201 C598.74947,1245.14588 605.605158,1243.1139 609.64855,1241.33739 C609.64855,1241.33739 617.607519,1239.52589 626.542111,1229.25653 C635.476701,1218.98717 634.988782,1203.97648 634.988782,1203.97648 C635.009003,1203.64591 635.008823,1203.32003 634.989317,1203 L635,1203 L635,1203 Z M321,73 C328.731987,73 335,66.7319869 335,59 C335,51.2680131 328.731987,45 321,45 C313.268013,45 307,51.2680131 307,59 C307,66.7319869 313.268013,73 321,73 L321,73 Z M34,110 L34,1126 L608,1126 L608,110 L34,110 L34,110 Z M106.5,73 C109.537566,73 112,70.5375663 112,67.5 C112,64.4624337 109.537566,62 106.5,62 C103.462434,62 101,64.4624337 101,67.5 C101,70.5375663 103.462434,73 106.5,73 L106.5,73 Z" id="Shape"></path>
                </g>
                <g id="google-nexus-5-(back)" transform="translate(1007.500000, 633.000000) scale(-1, 1) translate(-1007.500000, -633.000000) translate(687.000000, 0.000000)">
                    <path d="M635,1203 L635,238 L639.993155,238 C640.54922,238 641,237.544469 641,237.005084 L641,157.994916 C641,157.445439 640.550051,157 639.993155,157 L635,157 L635,63 L634.989317,62.9999999 C635.008823,62.6799739 635.009003,62.3540944 634.988782,62.0235181 C634.988782,62.0235181 635.476701,47.012826 626.542111,36.7434672 C617.607519,26.4741085 609.64855,24.6626116 609.64855,24.6626116 C605.605158,22.8861006 598.74947,20.8541178 594.446746,19.8799029 C594.446746,19.8799029 581.817839,16.4943964 545.807228,11.6508497 C524.383635,8.7693057 490.694654,5.72200883 471.042222,4.684615 C449.017876,3.52201471 419.855921,1.32340925 391.732486,0.530371842 C359.892397,-0.36746961 330.298982,0.106983491 321,0.29834542 C311.701018,0.106983491 282.107603,-0.36746961 250.267514,0.530371842 C222.144079,1.32340925 192.982124,3.52201471 170.957778,4.684615 C151.305346,5.72200883 117.616365,8.7693057 96.1927722,11.6508497 C60.1821606,16.4943964 47.5532541,19.8799029 47.5532541,19.8799029 C43.2505302,20.8541178 36.3948417,22.8861006 32.3514501,24.6626116 C32.3514501,24.6626116 24.3924806,26.4741085 15.4578886,36.7434672 C6.52329882,47.012826 7.01121788,62.0235181 7.01121788,62.0235181 C6.99099662,62.3540945 6.9911765,62.679974 7,63 L7,241 L1.00684547,241 C0.450780073,241 0,241.438228 0,241.999922 L0,439.000078 C0,439.55232 0.449948758,440 1.00684547,440 L7,440 L7,1203 C6.9911765,1203.32003 6.99099662,1203.64591 7.01121788,1203.97648 C7.01121788,1203.97648 6.52329882,1218.98717 15.4578886,1229.25653 C24.3924806,1239.52589 32.3514501,1241.33739 32.3514501,1241.33739 C36.3948417,1243.1139 43.2505302,1245.14588 47.5532541,1246.1201 C47.5532541,1246.1201 60.1821606,1249.5056 96.1927722,1254.34915 C117.616365,1257.23069 151.305346,1260.27799 170.957778,1261.31539 C192.982124,1262.47799 222.144079,1264.67659 250.267514,1265.46963 C282.107603,1266.36747 311.701018,1265.89302 321,1265.70165 C330.298981,1265.89302 359.892396,1266.36747 391.732486,1265.46963 C419.855921,1264.67659 449.017876,1262.47799 471.042222,1261.31539 C490.694654,1260.27799 524.383635,1257.23069 545.807228,1254.34915 C581.817839,1249.5056 594.446746,1246.1201 594.446746,1246.1201 C598.74947,1245.14588 605.605158,1243.1139 609.64855,1241.33739 C609.64855,1241.33739 617.607519,1239.52589 626.542111,1229.25653 C635.476701,1218.98717 634.988782,1203.97648 634.988782,1203.97648 C635.009003,1203.64591 635.008823,1203.32003 634.989317,1203 L635,1203 L635,1203 Z M484.5,289 C494.127541,289 501.932203,281.172615 501.932203,271.517045 C501.932203,261.861476 494.127541,254.034091 484.5,254.034091 C474.872459,254.034091 467.067797,261.861476 467.067797,271.517045 C467.067797,281.172615 474.872459,289 484.5,289 L484.5,289 Z M484.5,229.352273 C517.913229,229.352273 545,202.186643 545,168.676136 C545,135.16563 517.913229,108 484.5,108 C451.086771,108 424,135.16563 424,168.676136 C424,202.186643 451.086771,229.352273 484.5,229.352273 L484.5,229.352273 Z" id="Shape"></path>
                </g>
            </g>
        </g>
    </g>
</svg>