<svg xmlns="http://www.w3.org/2000/svg" xmlns:xlink="http://www.w3.org/1999/xlink" version="1.1" x="0px" y="0px" viewBox="0 0 96 120" enable-background="new 0 0 96 96" xml:space="preserve"><g><g>
  <path fill="black" d="M25.891,43.664C26.249,43.903,29.58,46,36,46c1.104,0,2-0.896,2-2s-0.896-2-2-2c-3.131,0-5.342-0.597-6.612-1.076    l2.986-10.452c0.156-0.546,0.811-1.277,1.186-1.425C37.154,27.631,41.608,27,48,27s10.846,0.631,14.44,2.047    c0.375,0.148,1.03,0.88,1.187,1.425l2.985,10.451C65.338,41.404,63.128,42,60,42c-1.104,0-2,0.896-2,2s0.896,2,2,2    c6.42,0,9.751-2.097,10.109-2.336c0.724-0.482,1.053-1.377,0.813-2.213l-3.45-12.078c-0.493-1.726-1.993-3.428-3.566-4.048    C59.823,23.717,54.917,23,48,23s-11.823,0.717-15.907,2.325c-1.573,0.62-3.073,2.323-3.565,4.048l-3.451,12.077    C24.838,42.287,25.167,43.182,25.891,43.664z"/>
  <path fill="black" d="M52,62h-8c-1.104,0-2,0.896-2,2s0.896,2,2,2h8c1.104,0,2-0.896,2-2S53.104,62,52,62z"/>
  <path fill="black" d="M54,56H42c-1.104,0-2,0.896-2,2s0.896,2,2,2h12c1.104,0,2-0.896,2-2S55.104,56,54,56z"/>
  <path fill="black" d="M29.999,56H24c-1.104,0-2,0.896-2,2c0,4.411,3.589,8,8,8h6c0.007-0.001,0.013-0.001,0.02,0c1.104,0,2-0.896,2-2    c0-0.111-0.009-0.221-0.027-0.327C37.821,59.413,34.301,56,29.999,56z M30,62c-1.478,0-2.771-0.805-3.463-2H30    c1.478,0,2.771,0.805,3.463,2H30z"/>
  <path fill="black" d="M72,56h-6c-4.411,0-8,3.589-8,8c0,1.104,0.896,2,2,2h6c4.411,0,8-3.589,8-8C74,56.896,73.104,56,72,56z M66,62h-3.463    c0.692-1.195,1.986-2,3.464-2h3.462C68.771,61.195,67.478,62,66,62z"/>
  <path fill="black" d="M86,44c0-3.309-2.691-6-6-6h-1.762l-3.752-12.65c-0.405-1.369-1.566-3.249-3.002-4.195C66.072,17.59,58.83,16,48,16    s-18.072,1.59-23.484,5.154c-1.434,0.944-2.596,2.825-3.002,4.194L17.761,38H16c-3.309,0-6,2.691-6,6    c0,2.999,2.212,5.491,5.089,5.931c-1.601,5.12-2.051,13.063,3.911,18.936V76c0,3.309,2.691,6,6,6h2c3.309,0,6-2.691,6-6v-3h15h15    v3c0,3.309,2.691,6,6,6h2c3.309,0,6-2.691,6-6v-7.133c5.962-5.874,5.512-13.816,3.91-18.936C83.788,49.491,86,46.999,86,44z     M80,46h-2c-0.691,0-1.333,0.359-1.697,0.947c-0.365,0.587-0.4,1.323-0.094,1.943c0.215,0.436,5.184,10.752-2.538,17.615    C73.244,66.885,73,67.429,73,68v8c0,1.103-0.897,2-2,2h-2c-1.103,0-2-0.897-2-2v-5c0-1.104-0.896-2-2-2H48H31    c-1.104,0-2,0.896-2,2v5c0,1.103-0.897,2-2,2h-2c-1.103,0-2-0.897-2-2v-8c0-0.571-0.244-1.115-0.671-1.495    c-7.721-6.863-2.753-17.179-2.54-17.61c0.31-0.62,0.277-1.356-0.088-1.946C19.337,46.359,18.693,46,18,46h-2c-1.103,0-2-0.897-2-2    s0.897-2,2-2h3.254c0.886,0,1.666-0.583,1.917-1.431l4.177-14.082c0.199-0.672,0.89-1.677,1.368-1.992C31.436,21.386,38,20,48,20    s16.564,1.386,21.283,4.495c0.479,0.315,1.169,1.32,1.368,1.992l4.177,14.083C75.079,41.417,75.859,42,76.745,42H80    c1.103,0,2,0.897,2,2S81.103,46,80,46z"/>
  <path fill="#CEA0FF" d="M46.105,52.789C46.393,52.933,46.698,53,46.999,53c0.733,0,1.44-0.405,1.791-1.106l4-8c0.31-0.62,0.277-1.356-0.088-1.946    C52.337,41.359,51.693,41,51,41h-2.764l2.553-5.105c0.494-0.988,0.093-2.189-0.895-2.684c-0.987-0.493-2.189-0.093-2.684,0.895    l-4,8c-0.31,0.62-0.277,1.356,0.088,1.946C43.663,44.641,44.307,45,45,45h2.764l-2.553,5.105    C44.717,51.094,45.118,52.295,46.105,52.789z"/></g></g></svg>
