<?xml version="1.0"?>
<svg width="130" height="180" xmlns="http://www.w3.org/2000/svg" xmlns:svg="http://www.w3.org/2000/svg">
 <g>
  <title>Layer 1</title>
  <path id="svg_1" d="m14.231,75.844002c0,8.280998 2.199,12.875 -2.148,12.875s-7.871,-6.713005 -7.871,-14.994003c0,-8.278999 3.523,-14.991997 7.871,-14.991997s2.148,8.831001 2.148,17.111z" stroke-miterlimit="10" stroke-width="5" stroke="#68cfed" fill="none"/>
  <path id="svg_2" d="m114.767998,77.843002c0,8.280998 -2.198997,12.875999 2.148003,12.875999s7.871002,-6.714005 7.871002,-14.995003c0,-8.278999 -3.523003,-14.992001 -7.871002,-14.992001s-2.148003,8.831005 -2.148003,17.111004z" stroke-miterlimit="10" stroke-width="5" stroke="#68cfed" fill="none"/>
  <path id="svg_3" d="m112.712997,56.863998c0,0 -8.488998,-8.508999 -18.168999,-10.062c-10.528999,-1.688 -24.632996,2.111 -19.989998,23.777004l5.346001,27.922997c0,0 -2.299004,4.93 -6.739998,5.998001c-2.309006,0.555 -5.096001,-0.092003 -7.596001,-1.671997c-0.695,-0.439003 -6.549004,-0.660004 -6.393002,-4.791" stroke-miterlimit="10" stroke-width="3" stroke="#68cfed" fill="none"/>
  <path id="svg_4" d="m27.709,66.207001c-0.316999,-0.167999 -1.201,-0.163002 -2.209,0.034996c-1.076,0.213005 -1.937,0.576004 -2.094999,0.862" stroke-miterlimit="10" stroke="#68cfed" fill="none" opacity="0.37"/>
  <path id="svg_5" d="m24.718,56.847c0,0 -0.238001,4.334 1.622999,5.27c0,0 -2.982,-1.274002 -4.257,0.765999" stroke-miterlimit="10" stroke="#68cfed" fill="none" opacity="0.37"/>
  <path id="svg_6" d="m109.317001,60.098999c0,0 -0.403,2.539001 -1.598,2.848c0,0 1.887001,-0.364998 2.368996,0.975002" stroke-miterlimit="10" stroke="#68cfed" fill="none" opacity="0.37"/>
  <ellipse id="svg_8" ry="67.723" rx="50.199" cy="72.426928" cx="65.138082" stroke-miterlimit="10" stroke-width="5" stroke="#68cfed" fill="none"/>
  <path id="svg_7" d="m107.931,64.607002c0,0 2.709,1.790001 1.668999,2.419998" stroke-miterlimit="10" stroke="#68cfed" fill="none" opacity="0.37"/>
  <path id="svg_9" d="m112.777,99.830002c0,37.666 -40.558998,74.702011 -47.292999,74.702011c-6.264999,0 -47.292002,-37.035995 -47.292002,-74.702011c0,-8.217003 21.174002,36.867996 47.293001,36.867996s47.292,-45.084999 47.292,-36.867996z" stroke-miterlimit="10" stroke-width="5" stroke="#68cfed" fill="#68cfed"/>
  <path id="svg_22" d="m93.252998,107.700996c0,2.864006 -12.460999,16.048004 -27.831001,16.048004c-15.372997,0 -27.833996,-13.183998 -27.833996,-16.048004" stroke-miterlimit="10" stroke-width="3" stroke="#68cfed" fill="none"/>
  <g id="svg_10">
   <path id="svg_11" d="m67.333,112.848c4.528999,4.344002 18.189003,8.560997 30.539001,4.739998c12.351997,-3.82 23.219002,-18.57 23.219002,-18.57s-19.043007,3.096001 -31.395004,6.916c-12.349998,3.818001 -26.892998,2.571999 -22.362999,6.914001z" stroke-miterlimit="10" stroke-width="5" stroke="#68cfed" fill="#68cfed"/>
   <path id="svg_12" d="m64.540001,112.848c-4.528999,4.344002 -18.188999,8.560997 -30.539001,4.739998c-12.351999,-3.82 -23.988,-18.57 -23.988,-18.57s19.814,3.096001 32.163999,6.916c12.351002,3.818001 26.894001,2.571999 22.363003,6.914001z" stroke-miterlimit="10" stroke-width="5" stroke="#68cfed" fill="#68cfed"/>
  </g>
  <path id="svg_13" d="m72.494003,128.871994c0.310997,1 0.310997,0.709 0,1.020996l-6.764,6.710999c-0.312004,0.311996 -0.816002,0.285004 -1.127007,-0.026993l-6.763996,-6.671005c-0.312,-0.311996 -0.312,-0.033997 0,-1.033997l14.655003,0z" fill="#68cfed"/>
  <path id="svg_14" d="m54.044998,60.870998c0,0.816002 -2.544998,0.854 -2.815998,1.598003c-1.231998,3.397995 -5.068001,5.875 -9.612999,5.875c-4.848,0.001999 -8.891003,-2.818001 -9.824001,-6.566002c-0.135,-0.536999 -1.861,-1.09 -1.861,-1.658001" stroke-miterlimit="10" stroke-width="2" stroke="#68cfed" fill="none"/>
  <path id="svg_15" d="m104.044998,61.870998c0,0.816002 -2.544998,0.854 -2.816002,1.598003c-1.231995,3.397995 -5.067993,5.875 -9.612999,5.875c-4.848,0.001999 -8.890999,-2.818001 -9.823997,-6.566002c-0.135002,-0.536999 -1.861,-1.09 -1.861,-1.658001" stroke-miterlimit="10" stroke-width="2" stroke="#68cfed" fill="none"/>
  <g id="svg_16">
   <path id="svg_17" d="m40.830002,78.736c-0.732002,-1.140999 -3.652,-2.748001 -7.338001,-3.948997c-3.934,-1.278999 -7.434,-1.672005 -8.482,-1.018005" stroke-miterlimit="10" stroke-width="2" stroke="#68cfed" fill="none" opacity="0.5"/>
   <path id="svg_18" d="m90.009003,78.736c0.731995,-1.140999 3.652,-2.748001 7.339996,-3.948997c3.931999,-1.278999 7.431999,-1.672005 8.482002,-1.018005" stroke-miterlimit="10" stroke-width="2" stroke="#68cfed" fill="none" opacity="0.5"/>
  </g>
  <g id="svg_19">
   <path stroke="#68cfed" id="svg_20" d="m69.250999,34.294998c-2.200996,0 -3.986,-1.785 -3.986,-3.984999c0,-2.199999 1.785004,-3.984999 3.986,-3.984999c0.112999,0 0.221001,0.024 0.332001,0.033998c-1.157997,-1.014 -2.670998,-1.633999 -4.332001,-1.633999c-3.638,0 -6.585999,2.948 -6.585999,6.584999c0,3.636999 2.947998,6.585001 6.585999,6.585001c2.808998,0 5.198997,-1.761002 6.146004,-4.236c-0.620003,0.398998 -1.354004,0.635998 -2.146004,0.635998z" fill="#F9FFE3"/>
   <path id="svg_21" d="m79.721001,33.700001c0,1.371998 -6.402,7.682999 -14.300003,7.682999c-7.897999,0 -14.300999,-6.311001 -14.300999,-7.682999c0,-1.628002 6.402,-8.679001 14.300999,-8.679001c7.898003,0 14.300003,7.050999 14.300003,8.679001z" stroke-miterlimit="10" stroke-width="3" stroke="#68cfed" fill="none"/>
  </g>
 </g>
 <g>
  <title>Layer 2</title>
 </g>
</svg>