<svg xmlns="http://www.w3.org/2000/svg" xmlns:xlink="http://www.w3.org/1999/xlink" version="1.1" x="0px" y="0px" viewBox="0 0 100 90" enable-background="new 0 0 100 100" xml:space="preserve"><g>


  <path d="M66.539,48.191H60.97v-6.877h-8.185v6.878h-5.571v-6.878H39.03v6.877h-5.571v-6.877h-8.184V49.5h6.876v6.876h8.185v-6.878   h5.571v6.879h8.186v-6.878h5.569v6.877h8.186V49.5h6.877v-8.186h-8.186V48.191z M32.153,48.192h-5.571v-5.571h5.571V48.192z    M39.03,55.068h-5.572v-5.57h5.572V55.068z M45.907,48.192h-5.571v-5.571h5.571V48.192z M52.785,55.069h-5.571v-5.571h5.571V55.069   z M59.663,48.192h-5.57v-5.571h5.57V48.192z M67.847,42.621h5.57v5.571h-5.57V42.621z M66.54,55.068h-5.57v-5.57h5.57V55.068z"/>


  <path d="M93.151,60.868h-0.243l-2.424-7.275c-2.612-7.837-7.364-18.255-18.427-18.255H27.942   c-11.063,0-15.815,10.418-18.427,18.255L7.09,60.868H6.849c-1.046,0-1.896,0.852-1.896,1.897c0,1.045,0.851,1.896,1.896,1.896   h86.303c1.045,0,1.896-0.852,1.896-1.897C95.048,61.72,94.196,60.868,93.151,60.868z M10.755,54.005   c3.947-11.844,9.409-17.36,17.187-17.36h44.116c7.778,0,13.238,5.517,17.188,17.36l2.287,6.863H8.467L10.755,54.005z    M93.151,63.354H6.849c-0.325,0-0.59-0.265-0.59-0.59s0.265-0.589,0.59-0.589h86.303c0.325,0,0.589,0.265,0.589,0.59   S93.477,63.354,93.151,63.354z"/></g></svg>
