<svg xmlns="http://www.w3.org/2000/svg" xmlns:xlink="http://www.w3.org/1999/xlink" version="1.1" x="0px" y="0px" viewBox="0 0 100 80" enable-background="new 0 0 100 100" xml:space="preserve">

  <path fill="#d52683" d="M88.737,56.601l-6.298-24.667c-1.104-4.321-3.87-6.901-7.4-6.901c-3.981,0-7.1,3.194-7.1,7.272c0,0.829,0.672,1.5,1.5,1.5  s1.5-0.671,1.5-1.5c0-2.396,1.801-4.272,4.1-4.272c2.985,0,4.138,3.247,4.494,4.643l5.82,22.796h-1.444  c-1.097-4.219-4.928-7.347-9.485-7.347c-2.22,0-4.375,0.767-6.103,2.142c-1.728-1.375-3.884-2.142-6.103-2.142  c-3.737,0-6.99,2.103-8.646,5.187c-2.568-1.012-5.512-1.012-8.082-0.001c-1.656-3.083-4.91-5.186-8.647-5.186  c-2.219,0-4.375,0.767-6.102,2.141c-1.727-1.374-3.883-2.141-6.103-2.141c-4.557,0-8.387,3.128-9.484,7.347h-1.445l5.82-22.796  c0.357-1.396,1.509-4.643,4.493-4.643c2.299,0,4.1,1.876,4.1,4.272c0,0.829,0.671,1.5,1.5,1.5s1.5-0.671,1.5-1.5  c0-4.078-3.119-7.272-7.1-7.272c-3.53,0-6.296,2.58-7.4,6.901l-6.298,24.667c-0.114,0.449-0.015,0.926,0.269,1.291  c0.284,0.366,0.721,0.58,1.185,0.58h3.073c0.487,10.288,14.773,15.443,15.392,15.661c0.161,0.057,0.33,0.085,0.498,0.085  s0.337-0.028,0.498-0.085c0.629-0.222,15.414-5.55,15.414-16.197c0-0.616-0.064-1.218-0.173-1.803c1.929-0.798,4.177-0.797,6.104,0  c-0.108,0.586-0.173,1.187-0.173,1.803c0,10.647,14.784,15.976,15.414,16.197c0.161,0.057,0.329,0.085,0.498,0.085  c0.168,0,0.337-0.028,0.498-0.085c0.619-0.218,14.904-5.373,15.392-15.661h3.072c0.463,0,0.9-0.214,1.185-0.58  C88.753,57.526,88.853,57.05,88.737,56.601z M30.74,71.112c-2.433-0.969-12.912-5.583-12.912-13.177c0-3.755,3.055-6.811,6.81-6.811  c1.915,0,3.691,0.781,5,2.2c0.567,0.615,1.637,0.615,2.204,0c1.31-1.419,3.085-2.2,5-2.2c3.755,0,6.81,3.056,6.81,6.811  C43.653,65.51,33.171,70.141,30.74,71.112z M68.321,71.112c-2.433-0.969-12.911-5.583-12.911-13.177  c0-0.722,0.115-1.416,0.323-2.069c0.009-0.021,0.017-0.041,0.023-0.062c0.897-2.713,3.453-4.679,6.462-4.679  c1.914,0,3.69,0.781,5.002,2.2c0.284,0.308,0.684,0.482,1.102,0.482c0.419,0,0.818-0.175,1.103-0.482  c1.309-1.419,3.084-2.2,4.999-2.2c3.756,0,6.812,3.056,6.812,6.811C81.235,65.51,70.752,70.141,68.321,71.112z M38.805,53.48  l-9.535,9.534c-0.293,0.293-0.293,0.768,0,1.061c0.146,0.146,0.338,0.22,0.53,0.22s0.384-0.073,0.53-0.22l9.535-9.534  c0.293-0.293,0.293-0.768,0-1.061S39.098,53.188,38.805,53.48z M34.312,55.321c-0.293-0.293-0.768-0.293-1.061,0l-9.534,9.534  c-0.293,0.293-0.293,0.768,0,1.061c0.146,0.146,0.338,0.22,0.53,0.22s0.384-0.073,0.53-0.22l9.534-9.534  C34.604,56.089,34.604,55.614,34.312,55.321z M71.894,55.321c-0.293-0.293-0.768-0.293-1.061,0L61.3,64.855  c-0.293,0.293-0.293,0.768,0,1.061c0.146,0.146,0.338,0.22,0.53,0.22s0.384-0.073,0.53-0.22l9.533-9.534  C72.187,56.089,72.187,55.614,71.894,55.321z M76.387,53.48l-9.535,9.534c-0.293,0.293-0.293,0.768,0,1.061  c0.146,0.146,0.338,0.22,0.53,0.22s0.384-0.073,0.53-0.22l9.535-9.534c0.293-0.293,0.293-0.768,0-1.061S76.68,53.188,76.387,53.48z"/></svg>
